<svg width="80" height="80" viewBox="0 0 80 80" fill="none" xmlns="http://www.w3.org/2000/svg">
<rect width="80" height="80" rx="16" fill="#E2EEEC"/>
<path d="M32.265 55.72C31.7301 55.7155 31.204 55.583 30.7308 55.3336C30.2576 55.0841 29.851 54.725 29.5451 54.2862C29.2391 53.8474 29.0427 53.3417 28.9722 52.8115C28.9017 52.2812 28.9592 51.7418 29.14 51.2383L32.485 43.3333H23.97L33.97 23.3333H53.1133L46.4466 33.3333H55.6383L34.5983 54.7633C33.9715 55.3689 33.1365 55.7113 32.265 55.72ZM29.3633 40H37.515L32.2416 52.4583L47.7016 36.6666H40.2183L46.885 26.6666H36.03L29.3633 40Z" fill="#1C3A27"/>
</svg>
