<svg width="80" height="80" viewBox="0 0 80 80" fill="none" xmlns="http://www.w3.org/2000/svg">
<rect width="80" height="80" rx="16" fill="#E2EEEC"/>
<path d="M35 31.6667H33.3333V25H30V31.6667H28.3333V25H25V36.6667C25 37.5507 25.3512 38.3986 25.9763 39.0237C26.6014 39.6488 27.4493 40 28.3333 40H30V55H33.3333V40H35C35.8841 40 36.7319 39.6488 37.357 39.0237C37.9821 38.3986 38.3333 37.5507 38.3333 36.6667V25H35V31.6667ZM28.3333 36.6667V35H35V36.6667H28.3333Z" fill="#1C3A27"/>
<path d="M50.9667 23.9817C50.2829 23.7699 49.5489 23.7853 48.8747 24.0257C48.2004 24.266 47.6222 24.7184 47.2267 25.315L45.4133 28.0433C44.084 30.04 43.2519 32.326 42.9867 34.71L41.8833 44.635C41.832 45.1006 41.8795 45.5717 42.0225 46.0178C42.1655 46.4638 42.4009 46.8747 42.7134 47.2236C43.0258 47.5726 43.4083 47.8518 43.8359 48.043C44.2635 48.2342 44.7266 48.3331 45.195 48.3333H50V55H53.3333V27.1667C53.3354 26.4515 53.1061 25.7548 52.6795 25.1807C52.2529 24.6066 51.6521 24.186 50.9667 23.9817ZM50 45H45.195L46.2983 35.075C46.5056 33.2214 47.1531 31.4442 48.1867 29.8917L50 27.1667V45Z" fill="#1C3A27"/>
</svg>
