<svg width="80" height="80" viewBox="0 0 80 80" fill="none" xmlns="http://www.w3.org/2000/svg">
<rect width="80" height="80" rx="16" fill="#E2EEEC"/>
<path d="M43 34V49.4625C42.9985 49.6287 43.0389 49.7926 43.1176 49.939C43.1962 50.0854 43.3106 50.2095 43.45 50.3L44.825 51.2125C44.9582 51.3014 45.1108 51.3571 45.27 51.3747C45.4292 51.3924 45.5903 51.3716 45.7398 51.314C45.8892 51.2564 46.0227 51.1638 46.1289 51.0439C46.2351 50.924 46.3109 50.7803 46.35 50.625L48 44" stroke="#1C3A27" stroke-width="2" stroke-linecap="round" stroke-linejoin="round"/>
<path d="M48 44C49.3261 44 50.5979 43.4732 51.5355 42.5355C52.4732 41.5978 53 40.3261 53 39C53 37.6739 52.4732 36.4021 51.5355 35.4644C50.5979 34.5268 49.3261 34 48 34H43C43 34 36.1875 34 29.6375 28.5125C29.4918 28.3919 29.3149 28.3151 29.1274 28.291C28.9398 28.267 28.7493 28.2965 28.5778 28.3764C28.4064 28.4562 28.2611 28.583 28.1589 28.742C28.0566 28.9011 28.0015 29.0859 28 29.275V48.725C28.0015 48.9141 28.0566 49.0989 28.1589 49.2579C28.2611 49.417 28.4064 49.5438 28.5778 49.6236C28.7493 49.7034 28.9398 49.733 29.1274 49.7089C29.3149 49.6848 29.4918 49.608 29.6375 49.4875C36.1875 44 43 44 43 44H48Z" stroke="#1C3A27" stroke-width="2" stroke-linecap="round" stroke-linejoin="round"/>
</svg>
