<svg width="80" height="80" viewBox="0 0 80 80" fill="none" xmlns="http://www.w3.org/2000/svg">
<rect width="80" height="80" rx="16" fill="#E2EEEC"/>
<mask id="path-2-inside-1_22_288" fill="white">
<path d="M53.0433 31.675C53.236 31.1376 53.3341 30.5709 53.3333 30C53.3333 28.6739 52.8066 27.4022 51.8689 26.4645C50.9312 25.5268 49.6594 25 48.3333 25C47.2443 25.0015 46.1863 25.3623 45.3233 26.0267C44.7095 25.1916 43.9078 24.5126 42.9831 24.0446C42.0583 23.5767 41.0364 23.3328 40 23.3328C38.9636 23.3328 37.9417 23.5767 37.0169 24.0446C36.0922 24.5126 35.2905 25.1916 34.6767 26.0267C33.8138 25.3623 32.7557 25.0015 31.6667 25C30.3406 25 29.0688 25.5268 28.1311 26.4645C27.1935 27.4022 26.6667 28.6739 26.6667 30C26.6669 30.5681 26.765 31.1319 26.9567 31.6667C25.6306 31.6282 24.3435 32.1181 23.3787 33.0286C22.4138 33.9391 21.8501 35.1956 21.8117 36.5217C21.7732 37.8478 22.2631 39.1348 23.1736 40.0997C24.0841 41.0645 25.3406 41.6282 26.6667 41.6667C27.3879 41.663 28.0996 41.5014 28.7517 41.1933C29.3417 41.6317 30.085 42.13 30.8517 42.655C32.3489 43.5561 33.7403 44.6222 35 45.8333C34.6149 48.6682 34.0662 51.4785 33.3567 54.25C33.3389 54.3219 33.331 54.3959 33.3333 54.47C33.375 55.82 35.6117 56.505 39.9767 56.51H40.0233C44.3883 56.51 46.625 55.82 46.6667 54.47C46.669 54.3959 46.6611 54.3219 46.6433 54.25C45.9466 51.5085 45.3936 48.7325 44.9867 45.9333C46.1183 44.7714 47.3995 43.7654 48.7967 42.9417C49.7267 42.3117 50.6017 41.7167 51.2583 41.1983C51.9079 41.503 52.6159 41.6628 53.3333 41.6667C54.002 41.6665 54.6639 41.5322 55.2798 41.2716C55.8956 41.0111 56.453 40.6297 56.9188 40.15C57.3847 39.6703 57.7496 39.102 57.992 38.4788C58.2343 37.8555 58.3492 37.19 58.3298 36.5216C58.3104 35.8532 58.1571 35.1955 57.879 34.5873C57.6009 33.9792 57.2037 33.433 56.7108 32.9811C56.2179 32.5293 55.6393 32.1808 55.0094 31.9565C54.3795 31.7321 53.7109 31.6364 53.0433 31.675ZM47.8617 41.5617C44.7133 43.695 43.3333 44.7433 43.3333 45.8333C43.687 48.66 44.218 51.4617 44.9233 54.2217C43.3456 54.7787 41.6668 54.9912 40 54.845C38.3332 54.9912 36.6544 54.7787 35.0767 54.2217C35.782 51.4617 36.3131 48.66 36.6667 45.8333C36.6667 44.6933 35.1783 43.5683 31.785 41.2733C31.215 40.8883 30.675 40.52 30.2 40.1833C30.8138 39.5705 31.2582 38.8091 31.49 37.9733C31.6267 38.0283 31.77 38.0583 31.91 38.1C34.1383 41.09 35.85 42.6 37.0067 42.6C37.1294 42.6008 37.2514 42.5822 37.3683 42.545C37.8017 42.4033 38.3217 41.9933 38.3333 40.835C38.3567 38.615 38.35 37.1683 38.3417 36.4117C39.4279 36.7041 40.5721 36.7041 41.6583 36.4117C41.6583 37.16 41.6433 38.615 41.6667 40.835C41.6783 41.9933 42.1983 42.4033 42.6317 42.545C42.7486 42.5822 42.8706 42.6008 42.9933 42.6C44.15 42.6 45.8617 41.0833 48.09 38.1C48.2283 38.0583 48.3717 38.03 48.5067 37.975C48.7403 38.8202 49.1927 39.5889 49.8183 40.2033C49.2617 40.6133 48.5767 41.0767 47.8617 41.5617ZM36.68 37C36.68 37.8183 36.68 39.07 36.6667 40.7917C35.7215 40.0406 34.8699 39.1789 34.13 38.225C35.0774 38.0619 35.9605 37.6376 36.68 37ZM43.3333 40.7967C43.315 39.0733 43.3167 37.8217 43.32 37.0033C44.0398 37.6407 44.9227 38.0655 45.87 38.23C45.1296 39.1835 44.278 40.0451 43.3333 40.7967ZM53.3333 40C52.8939 40 52.4588 39.9131 52.0531 39.7444C51.6474 39.5756 51.279 39.3283 50.9692 39.0166C50.6594 38.705 50.4143 38.3352 50.248 37.9284C50.0816 37.5217 49.9974 37.0861 50 36.6467C50 36.4919 49.9569 36.3402 49.8755 36.2086C49.7942 36.0769 49.6778 35.9705 49.5394 35.9013C49.4009 35.8321 49.246 35.8028 49.0918 35.8167C48.9377 35.8306 48.7905 35.8871 48.6667 35.98C48.2651 36.2684 47.8052 36.4655 47.3194 36.5573C46.8335 36.6491 46.3335 36.6335 45.8543 36.5115C45.3751 36.3895 44.9285 36.1641 44.5457 35.8512C44.1628 35.5383 43.8532 35.1453 43.6383 34.7C43.5907 34.5947 43.5216 34.5004 43.4355 34.4232C43.3494 34.3461 43.2482 34.2876 43.1383 34.2517C43.0287 34.2155 42.9126 34.2028 42.7977 34.2146C42.6828 34.2264 42.5717 34.2623 42.4717 34.32C41.7259 34.7618 40.8751 34.9948 40.0083 34.9948C39.1416 34.9948 38.2908 34.7618 37.545 34.32C37.4445 34.2634 37.3333 34.2284 37.2186 34.217C37.1038 34.2056 36.9879 34.2182 36.8783 34.2539C36.7686 34.2896 36.6675 34.3477 36.5815 34.4245C36.4954 34.5013 36.4263 34.5951 36.3783 34.7C36.1641 35.148 35.8539 35.5435 35.4699 35.8583C35.0858 36.1732 34.6373 36.3998 34.1559 36.5221C33.6746 36.6443 33.1723 36.6593 32.6845 36.5659C32.1967 36.4726 31.7355 36.2731 31.3333 35.9817C31.2088 35.8898 31.0611 35.8344 30.9069 35.8218C30.7526 35.8091 30.5979 35.8397 30.46 35.91C30.3211 35.9815 30.2046 36.09 30.1234 36.2236C30.0423 36.3571 29.9996 36.5104 30 36.6667C30 37.3259 29.8045 37.9704 29.4382 38.5186C29.072 39.0667 28.5514 39.494 27.9423 39.7463C27.3332 39.9986 26.663 40.0646 26.0164 39.936C25.3698 39.8073 24.7758 39.4899 24.3097 39.0237C23.8435 38.5575 23.526 37.9636 23.3974 37.317C23.2688 36.6704 23.3348 36.0001 23.5871 35.3911C23.8394 34.782 24.2666 34.2614 24.8148 33.8951C25.3629 33.5288 26.0074 33.3333 26.6667 33.3333C27.3905 33.3356 28.0935 33.5763 28.6667 34.0183C28.7922 34.1092 28.9406 34.1633 29.0952 34.1745C29.2497 34.1857 29.4044 34.1535 29.5417 34.0817C29.6806 34.0081 29.7967 33.8979 29.8775 33.7631C29.9583 33.6282 30.0007 33.4739 30 33.3167C30 33.1873 29.9699 33.0597 29.912 32.944C29.8542 32.8283 29.7702 32.7276 29.6667 32.65C29.29 32.3699 28.9769 32.0131 28.7482 31.6032C28.5195 31.1932 28.3803 30.7394 28.3399 30.2718C28.2994 29.8041 28.3586 29.3331 28.5135 28.89C28.6685 28.4469 28.9156 28.0416 29.2386 27.701C29.5617 27.3604 29.9533 27.0922 30.3876 26.914C30.8219 26.7359 31.2891 26.6519 31.7582 26.6675C32.2274 26.6832 32.6879 26.7981 33.1094 27.0049C33.5309 27.2116 33.9037 27.5053 34.2033 27.8667C34.2915 27.9718 34.4042 28.0535 34.5315 28.1046C34.6588 28.1557 34.7967 28.1746 34.9331 28.1596C35.0694 28.1446 35.2 28.0962 35.3131 28.0186C35.4263 27.9411 35.5185 27.8368 35.5817 27.715C35.9958 26.8994 36.6276 26.2144 37.4072 25.7359C38.1868 25.2574 39.0836 25.0041 39.9983 25.0041C40.913 25.0041 41.8099 25.2574 42.5895 25.7359C43.369 26.2144 44.0009 26.8994 44.415 27.715C44.4781 27.8368 44.5703 27.9412 44.6834 28.0188C44.7965 28.0964 44.927 28.1449 45.0633 28.16C45.1998 28.175 45.3378 28.1561 45.4651 28.1049C45.5925 28.0537 45.7052 27.9719 45.7933 27.8667C46.0943 27.51 46.4672 27.2209 46.8875 27.0181C47.3079 26.8153 47.7663 26.7035 48.2328 26.6899C48.6993 26.6764 49.1634 26.7613 49.5948 26.9393C50.0263 27.1173 50.4153 27.3843 50.7365 27.7229C51.0577 28.0614 51.3039 28.4639 51.459 28.9041C51.6141 29.3443 51.6746 29.8122 51.6366 30.2774C51.5985 30.7425 51.4628 31.1944 51.2382 31.6035C51.0136 32.0127 50.7053 32.3698 50.3333 32.6517C50.2292 32.7365 50.1452 32.8436 50.0876 32.9649C50.0299 33.0863 50 33.219 50 33.3533C50 33.5081 50.0431 33.6598 50.1245 33.7914C50.2058 33.9231 50.3222 34.0295 50.4607 34.0987C50.5991 34.1679 50.754 34.1972 50.9082 34.1833C51.0623 34.1694 51.2095 34.1129 51.3333 34.02C51.9063 33.5774 52.6093 33.336 53.3333 33.3333C54.2174 33.3333 55.0652 33.6845 55.6904 34.3096C56.3155 34.9348 56.6667 35.7826 56.6667 36.6667C56.6667 37.5507 56.3155 38.3986 55.6904 39.0237C55.0652 39.6488 54.2174 40 53.3333 40Z"/>
</mask>
<path d="M53.0433 31.675C53.236 31.1376 53.3341 30.5709 53.3333 30C53.3333 28.6739 52.8066 27.4022 51.8689 26.4645C50.9312 25.5268 49.6594 25 48.3333 25C47.2443 25.0015 46.1863 25.3623 45.3233 26.0267C44.7095 25.1916 43.9078 24.5126 42.9831 24.0446C42.0583 23.5767 41.0364 23.3328 40 23.3328C38.9636 23.3328 37.9417 23.5767 37.0169 24.0446C36.0922 24.5126 35.2905 25.1916 34.6767 26.0267C33.8138 25.3623 32.7557 25.0015 31.6667 25C30.3406 25 29.0688 25.5268 28.1311 26.4645C27.1935 27.4022 26.6667 28.6739 26.6667 30C26.6669 30.5681 26.765 31.1319 26.9567 31.6667C25.6306 31.6282 24.3435 32.1181 23.3787 33.0286C22.4138 33.9391 21.8501 35.1956 21.8117 36.5217C21.7732 37.8478 22.2631 39.1348 23.1736 40.0997C24.0841 41.0645 25.3406 41.6282 26.6667 41.6667C27.3879 41.663 28.0996 41.5014 28.7517 41.1933C29.3417 41.6317 30.085 42.13 30.8517 42.655C32.3489 43.5561 33.7403 44.6222 35 45.8333C34.6149 48.6682 34.0662 51.4785 33.3567 54.25C33.3389 54.3219 33.331 54.3959 33.3333 54.47C33.375 55.82 35.6117 56.505 39.9767 56.51H40.0233C44.3883 56.51 46.625 55.82 46.6667 54.47C46.669 54.3959 46.6611 54.3219 46.6433 54.25C45.9466 51.5085 45.3936 48.7325 44.9867 45.9333C46.1183 44.7714 47.3995 43.7654 48.7967 42.9417C49.7267 42.3117 50.6017 41.7167 51.2583 41.1983C51.9079 41.503 52.6159 41.6628 53.3333 41.6667C54.002 41.6665 54.6639 41.5322 55.2798 41.2716C55.8956 41.0111 56.453 40.6297 56.9188 40.15C57.3847 39.6703 57.7496 39.102 57.992 38.4788C58.2343 37.8555 58.3492 37.19 58.3298 36.5216C58.3104 35.8532 58.1571 35.1955 57.879 34.5873C57.6009 33.9792 57.2037 33.433 56.7108 32.9811C56.2179 32.5293 55.6393 32.1808 55.0094 31.9565C54.3795 31.7321 53.7109 31.6364 53.0433 31.675ZM47.8617 41.5617C44.7133 43.695 43.3333 44.7433 43.3333 45.8333C43.687 48.66 44.218 51.4617 44.9233 54.2217C43.3456 54.7787 41.6668 54.9912 40 54.845C38.3332 54.9912 36.6544 54.7787 35.0767 54.2217C35.782 51.4617 36.3131 48.66 36.6667 45.8333C36.6667 44.6933 35.1783 43.5683 31.785 41.2733C31.215 40.8883 30.675 40.52 30.2 40.1833C30.8138 39.5705 31.2582 38.8091 31.49 37.9733C31.6267 38.0283 31.77 38.0583 31.91 38.1C34.1383 41.09 35.85 42.6 37.0067 42.6C37.1294 42.6008 37.2514 42.5822 37.3683 42.545C37.8017 42.4033 38.3217 41.9933 38.3333 40.835C38.3567 38.615 38.35 37.1683 38.3417 36.4117C39.4279 36.7041 40.5721 36.7041 41.6583 36.4117C41.6583 37.16 41.6433 38.615 41.6667 40.835C41.6783 41.9933 42.1983 42.4033 42.6317 42.545C42.7486 42.5822 42.8706 42.6008 42.9933 42.6C44.15 42.6 45.8617 41.0833 48.09 38.1C48.2283 38.0583 48.3717 38.03 48.5067 37.975C48.7403 38.8202 49.1927 39.5889 49.8183 40.2033C49.2617 40.6133 48.5767 41.0767 47.8617 41.5617ZM36.68 37C36.68 37.8183 36.68 39.07 36.6667 40.7917C35.7215 40.0406 34.8699 39.1789 34.13 38.225C35.0774 38.0619 35.9605 37.6376 36.68 37ZM43.3333 40.7967C43.315 39.0733 43.3167 37.8217 43.32 37.0033C44.0398 37.6407 44.9227 38.0655 45.87 38.23C45.1296 39.1835 44.278 40.0451 43.3333 40.7967ZM53.3333 40C52.8939 40 52.4588 39.9131 52.0531 39.7444C51.6474 39.5756 51.279 39.3283 50.9692 39.0166C50.6594 38.705 50.4143 38.3352 50.248 37.9284C50.0816 37.5217 49.9974 37.0861 50 36.6467C50 36.4919 49.9569 36.3402 49.8755 36.2086C49.7942 36.0769 49.6778 35.9705 49.5394 35.9013C49.4009 35.8321 49.246 35.8028 49.0918 35.8167C48.9377 35.8306 48.7905 35.8871 48.6667 35.98C48.2651 36.2684 47.8052 36.4655 47.3194 36.5573C46.8335 36.6491 46.3335 36.6335 45.8543 36.5115C45.3751 36.3895 44.9285 36.1641 44.5457 35.8512C44.1628 35.5383 43.8532 35.1453 43.6383 34.7C43.5907 34.5947 43.5216 34.5004 43.4355 34.4232C43.3494 34.3461 43.2482 34.2876 43.1383 34.2517C43.0287 34.2155 42.9126 34.2028 42.7977 34.2146C42.6828 34.2264 42.5717 34.2623 42.4717 34.32C41.7259 34.7618 40.8751 34.9948 40.0083 34.9948C39.1416 34.9948 38.2908 34.7618 37.545 34.32C37.4445 34.2634 37.3333 34.2284 37.2186 34.217C37.1038 34.2056 36.9879 34.2182 36.8783 34.2539C36.7686 34.2896 36.6675 34.3477 36.5815 34.4245C36.4954 34.5013 36.4263 34.5951 36.3783 34.7C36.1641 35.148 35.8539 35.5435 35.4699 35.8583C35.0858 36.1732 34.6373 36.3998 34.1559 36.5221C33.6746 36.6443 33.1723 36.6593 32.6845 36.5659C32.1967 36.4726 31.7355 36.2731 31.3333 35.9817C31.2088 35.8898 31.0611 35.8344 30.9069 35.8218C30.7526 35.8091 30.5979 35.8397 30.46 35.91C30.3211 35.9815 30.2046 36.09 30.1234 36.2236C30.0423 36.3571 29.9996 36.5104 30 36.6667C30 37.3259 29.8045 37.9704 29.4382 38.5186C29.072 39.0667 28.5514 39.494 27.9423 39.7463C27.3332 39.9986 26.663 40.0646 26.0164 39.936C25.3698 39.8073 24.7758 39.4899 24.3097 39.0237C23.8435 38.5575 23.526 37.9636 23.3974 37.317C23.2688 36.6704 23.3348 36.0001 23.5871 35.3911C23.8394 34.782 24.2666 34.2614 24.8148 33.8951C25.3629 33.5288 26.0074 33.3333 26.6667 33.3333C27.3905 33.3356 28.0935 33.5763 28.6667 34.0183C28.7922 34.1092 28.9406 34.1633 29.0952 34.1745C29.2497 34.1857 29.4044 34.1535 29.5417 34.0817C29.6806 34.0081 29.7967 33.8979 29.8775 33.7631C29.9583 33.6282 30.0007 33.4739 30 33.3167C30 33.1873 29.9699 33.0597 29.912 32.944C29.8542 32.8283 29.7702 32.7276 29.6667 32.65C29.29 32.3699 28.9769 32.0131 28.7482 31.6032C28.5195 31.1932 28.3803 30.7394 28.3399 30.2718C28.2994 29.8041 28.3586 29.3331 28.5135 28.89C28.6685 28.4469 28.9156 28.0416 29.2386 27.701C29.5617 27.3604 29.9533 27.0922 30.3876 26.914C30.8219 26.7359 31.2891 26.6519 31.7582 26.6675C32.2274 26.6832 32.6879 26.7981 33.1094 27.0049C33.5309 27.2116 33.9037 27.5053 34.2033 27.8667C34.2915 27.9718 34.4042 28.0535 34.5315 28.1046C34.6588 28.1557 34.7967 28.1746 34.9331 28.1596C35.0694 28.1446 35.2 28.0962 35.3131 28.0186C35.4263 27.9411 35.5185 27.8368 35.5817 27.715C35.9958 26.8994 36.6276 26.2144 37.4072 25.7359C38.1868 25.2574 39.0836 25.0041 39.9983 25.0041C40.913 25.0041 41.8099 25.2574 42.5895 25.7359C43.369 26.2144 44.0009 26.8994 44.415 27.715C44.4781 27.8368 44.5703 27.9412 44.6834 28.0188C44.7965 28.0964 44.927 28.1449 45.0633 28.16C45.1998 28.175 45.3378 28.1561 45.4651 28.1049C45.5925 28.0537 45.7052 27.9719 45.7933 27.8667C46.0943 27.51 46.4672 27.2209 46.8875 27.0181C47.3079 26.8153 47.7663 26.7035 48.2328 26.6899C48.6993 26.6764 49.1634 26.7613 49.5948 26.9393C50.0263 27.1173 50.4153 27.3843 50.7365 27.7229C51.0577 28.0614 51.3039 28.4639 51.459 28.9041C51.6141 29.3443 51.6746 29.8122 51.6366 30.2774C51.5985 30.7425 51.4628 31.1944 51.2382 31.6035C51.0136 32.0127 50.7053 32.3698 50.3333 32.6517C50.2292 32.7365 50.1452 32.8436 50.0876 32.9649C50.0299 33.0863 50 33.219 50 33.3533C50 33.5081 50.0431 33.6598 50.1245 33.7914C50.2058 33.9231 50.3222 34.0295 50.4607 34.0987C50.5991 34.1679 50.754 34.1972 50.9082 34.1833C51.0623 34.1694 51.2095 34.1129 51.3333 34.02C51.9063 33.5774 52.6093 33.336 53.3333 33.3333C54.2174 33.3333 55.0652 33.6845 55.6904 34.3096C56.3155 34.9348 56.6667 35.7826 56.6667 36.6667C56.6667 37.5507 56.3155 38.3986 55.6904 39.0237C55.0652 39.6488 54.2174 40 53.3333 40Z" fill="#1C3A27" stroke="#1C3A27" stroke-width="18" mask="url(#path-2-inside-1_22_288)"/>
<mask id="path-3-inside-2_22_288" fill="white">
<path d="M53.6955 31.2588C53.8978 30.6945 54.0008 30.0994 54 29.5C54 28.1076 53.4469 26.7723 52.4623 25.7877C51.4778 24.8031 50.1424 24.25 48.75 24.25C47.6066 24.2515 46.4956 24.6305 45.5895 25.328C44.945 24.4512 44.1032 23.7382 43.1322 23.2469C42.1612 22.7555 41.0883 22.4995 40 22.4995C38.9118 22.4995 37.8388 22.7555 36.8678 23.2469C35.8968 23.7382 35.055 24.4512 34.4105 25.328C33.5045 24.6305 32.3935 24.2515 31.25 24.25C29.8576 24.25 28.5223 24.8031 27.5377 25.7877C26.5531 26.7723 26 28.1076 26 29.5C26.0002 30.0965 26.1032 30.6885 26.3045 31.25C24.9121 31.2096 23.5607 31.724 22.5476 32.68C21.5345 33.6361 20.9426 34.9554 20.9023 36.3478C20.8619 37.7401 21.3763 39.0915 22.3323 40.1047C23.2883 41.1178 24.6076 41.7096 26 41.75C26.7573 41.7461 27.5045 41.5765 28.1893 41.253C28.8088 41.7133 29.5893 42.2365 30.3943 42.7878C31.9663 43.7339 33.4273 44.8533 34.75 46.125C34.3457 49.1016 33.7696 52.0524 33.0245 54.9625C33.0058 55.038 32.9976 55.1157 33 55.1935C33.0438 56.611 35.3923 57.3303 39.9755 57.3355H40.0245C44.6078 57.3355 46.9563 56.611 47 55.1935C47.0025 55.1157 46.9942 55.038 46.9755 54.9625C46.2439 52.084 45.6633 49.1692 45.236 46.23C46.4242 45.01 47.7695 43.9536 49.2365 43.0888C50.213 42.4273 51.1318 41.8025 51.8213 41.2583C52.5033 41.5782 53.2467 41.746 54 41.75C54.7021 41.7498 55.3971 41.6088 56.0438 41.3352C56.6904 41.0617 57.2756 40.6612 57.7648 40.1575C58.254 39.6538 58.6371 39.0571 58.8916 38.4027C59.146 37.7483 59.2667 37.0495 59.2463 36.3477C59.2259 35.6459 59.065 34.9552 58.773 34.3167C58.481 33.6782 58.0639 33.1047 57.5463 32.6302C57.0288 32.1557 56.4213 31.7899 55.7599 31.5543C55.0984 31.3187 54.3965 31.2182 53.6955 31.2588ZM48.2548 41.6398C44.949 43.8798 43.5 44.9805 43.5 46.125C43.8713 49.093 44.4289 52.0347 45.1695 54.9328C43.5129 55.5176 41.7501 55.7408 40 55.5873C38.2499 55.7408 36.4872 55.5176 34.8305 54.9328C35.5711 52.0347 36.1287 49.093 36.5 46.125C36.5 44.928 34.9373 43.7468 31.3743 41.337C30.7758 40.9328 30.2088 40.546 29.71 40.1925C30.3545 39.549 30.8211 38.7496 31.0645 37.872C31.208 37.9298 31.3585 37.9613 31.5055 38.005C33.8453 41.1445 35.6425 42.73 36.857 42.73C36.9858 42.7308 37.114 42.7114 37.2368 42.6723C37.6918 42.5235 38.2378 42.093 38.25 40.8768C38.2745 38.5458 38.2675 37.0268 38.2588 36.2323C39.3993 36.5393 40.6007 36.5393 41.7413 36.2323C41.7413 37.018 41.7255 38.5458 41.75 40.8768C41.7623 42.093 42.3083 42.5235 42.7633 42.6723C42.886 42.7114 43.0142 42.7308 43.143 42.73C44.3575 42.73 46.1548 41.1375 48.4945 38.005C48.6398 37.9613 48.7903 37.9315 48.932 37.8738C49.1773 38.7612 49.6524 39.5683 50.3093 40.2135C49.7248 40.644 49.0055 41.1305 48.2548 41.6398ZM36.514 36.85C36.514 37.7093 36.514 39.0235 36.5 40.8313C35.5076 40.0426 34.6134 39.1379 33.8365 38.1363C34.8313 37.965 35.7586 37.5195 36.514 36.85ZM43.5 40.8365C43.4808 39.027 43.4825 37.7128 43.486 36.8535C44.2418 37.5228 45.1689 37.9687 46.1635 38.1415C45.3861 39.1426 44.4919 40.0474 43.5 40.8365ZM54 40C53.5386 40 53.0818 39.9088 52.6558 39.7316C52.2297 39.5544 51.843 39.2947 51.5177 38.9675C51.1924 38.6402 50.935 38.2519 50.7604 37.8248C50.5857 37.3978 50.4972 36.9404 50.5 36.479C50.5 36.3165 50.4548 36.1572 50.3693 36.019C50.2839 35.8808 50.1617 35.7691 50.0163 35.6964C49.871 35.6237 49.7083 35.5929 49.5464 35.6075C49.3846 35.6221 49.23 35.6815 49.1 35.779C48.6783 36.0818 48.1955 36.2887 47.6853 36.3851C47.1752 36.4815 46.6501 36.4651 46.147 36.3371C45.6439 36.209 45.1749 35.9724 44.7729 35.6438C44.371 35.3152 44.0458 34.9026 43.8203 34.435C43.7702 34.3244 43.6977 34.2254 43.6073 34.1444C43.5169 34.0634 43.4106 34.002 43.2953 33.9643C43.1801 33.9262 43.0582 33.913 42.9376 33.9254C42.817 33.9377 42.7003 33.9754 42.5953 34.036C41.8122 34.4998 40.9189 34.7446 40.0088 34.7446C39.0987 34.7446 38.2053 34.4998 37.4223 34.036C37.3167 33.9766 37.2 33.9398 37.0795 33.9278C36.959 33.9159 36.8373 33.9291 36.7222 33.9666C36.607 34.0041 36.5009 34.0651 36.4106 34.1457C36.3202 34.2263 36.2476 34.3249 36.1973 34.435C35.9723 34.9054 35.6466 35.3206 35.2434 35.6512C34.8401 35.9818 34.3691 36.2198 33.8637 36.3482C33.3583 36.4766 32.8309 36.4923 32.3187 36.3942C31.8066 36.2962 31.3222 36.0867 30.9 35.7808C30.7692 35.6843 30.6142 35.6262 30.4522 35.6129C30.2902 35.5996 30.1278 35.6317 29.983 35.7055C29.8371 35.7806 29.7149 35.8945 29.6296 36.0347C29.5444 36.1749 29.4995 36.3359 29.5 36.5C29.5 37.1922 29.2947 37.8689 28.9102 38.4445C28.5256 39.0201 27.9789 39.4687 27.3394 39.7336C26.6999 39.9985 25.9961 40.0678 25.3172 39.9328C24.6383 39.7977 24.0146 39.4644 23.5251 38.9749C23.0357 38.4854 22.7023 37.8618 22.5673 37.1828C22.4322 36.5039 22.5015 35.8002 22.7664 35.1606C23.0313 34.5211 23.4799 33.9744 24.0555 33.5899C24.6311 33.2053 25.3078 33 26 33C26.7601 33.0023 27.4981 33.2551 28.1 33.7193C28.2318 33.8147 28.3876 33.8714 28.5499 33.8832C28.7122 33.8949 28.8746 33.8612 29.0188 33.7858C29.1646 33.7085 29.2866 33.5928 29.3714 33.4512C29.4562 33.3096 29.5007 33.1476 29.5 32.9825C29.5 32.8467 29.4684 32.7127 29.4076 32.5912C29.3469 32.4697 29.2587 32.364 29.15 32.2825C28.7545 31.9884 28.4258 31.6138 28.1856 31.1833C27.9455 30.7529 27.7993 30.2764 27.7569 29.7853C27.7144 29.2943 27.7765 28.7998 27.9392 28.3345C28.1019 27.8692 28.3614 27.4437 28.7006 27.0861C29.0398 26.7284 29.4509 26.4468 29.907 26.2597C30.363 26.0727 30.8535 25.9845 31.3462 26.0009C31.8388 26.0173 32.3223 26.1381 32.7649 26.3551C33.2074 26.5721 33.5989 26.8806 33.9135 27.26C34.0061 27.3704 34.1244 27.4562 34.2581 27.5099C34.3917 27.5635 34.5366 27.5834 34.6797 27.5676C34.8229 27.5518 34.96 27.501 35.0788 27.4196C35.1976 27.3381 35.2944 27.2286 35.3608 27.1008C35.7956 26.2444 36.459 25.5251 37.2776 25.0227C38.0961 24.5203 39.0378 24.2543 39.9983 24.2543C40.9587 24.2543 41.9004 24.5203 42.719 25.0227C43.5375 25.5251 44.201 26.2444 44.6358 27.1008C44.702 27.2287 44.7988 27.3382 44.9176 27.4197C45.0363 27.5012 45.1734 27.5522 45.3165 27.568C45.4598 27.5838 45.6047 27.5639 45.7384 27.5102C45.8721 27.4564 45.9905 27.3705 46.083 27.26C46.3991 26.8855 46.7906 26.5819 47.2319 26.369C47.6733 26.1561 48.1546 26.0387 48.6444 26.0244C49.1343 26.0102 49.6216 26.0994 50.0746 26.2863C50.5276 26.4732 50.9361 26.7535 51.2733 27.109C51.6106 27.4645 51.8691 27.8871 52.032 28.3493C52.1948 28.8115 52.2583 29.3029 52.2184 29.7913C52.1784 30.2797 52.0359 30.7541 51.8001 31.1837C51.5643 31.6133 51.2406 31.9883 50.85 32.2843C50.7406 32.3734 50.6525 32.4857 50.5919 32.6132C50.5314 32.7406 50.5 32.8799 50.5 33.021C50.5 33.1835 50.5453 33.3428 50.6307 33.481C50.7161 33.6192 50.8384 33.731 50.9837 33.8036C51.129 33.8763 51.2918 33.9071 51.4536 33.8925C51.6154 33.8779 51.77 33.8185 51.9 33.721C52.5017 33.2562 53.2398 33.0028 54 33C54.9283 33 55.8185 33.3688 56.4749 34.0251C57.1313 34.6815 57.5 35.5717 57.5 36.5C57.5 37.4283 57.1313 38.3185 56.4749 38.9749C55.8185 39.6313 54.9283 40 54 40Z"/>
</mask>
<path d="M53.6955 31.2588C53.8978 30.6945 54.0008 30.0994 54 29.5C54 28.1076 53.4469 26.7723 52.4623 25.7877C51.4778 24.8031 50.1424 24.25 48.75 24.25C47.6066 24.2515 46.4956 24.6305 45.5895 25.328C44.945 24.4512 44.1032 23.7382 43.1322 23.2469C42.1612 22.7555 41.0883 22.4995 40 22.4995C38.9118 22.4995 37.8388 22.7555 36.8678 23.2469C35.8968 23.7382 35.055 24.4512 34.4105 25.328C33.5045 24.6305 32.3935 24.2515 31.25 24.25C29.8576 24.25 28.5223 24.8031 27.5377 25.7877C26.5531 26.7723 26 28.1076 26 29.5C26.0002 30.0965 26.1032 30.6885 26.3045 31.25C24.9121 31.2096 23.5607 31.724 22.5476 32.68C21.5345 33.6361 20.9426 34.9554 20.9023 36.3478C20.8619 37.7401 21.3763 39.0915 22.3323 40.1047C23.2883 41.1178 24.6076 41.7096 26 41.75C26.7573 41.7461 27.5045 41.5765 28.1893 41.253C28.8088 41.7133 29.5893 42.2365 30.3943 42.7878C31.9663 43.7339 33.4273 44.8533 34.75 46.125C34.3457 49.1016 33.7696 52.0524 33.0245 54.9625C33.0058 55.038 32.9976 55.1157 33 55.1935C33.0438 56.611 35.3923 57.3303 39.9755 57.3355H40.0245C44.6078 57.3355 46.9563 56.611 47 55.1935C47.0025 55.1157 46.9942 55.038 46.9755 54.9625C46.2439 52.084 45.6633 49.1692 45.236 46.23C46.4242 45.01 47.7695 43.9536 49.2365 43.0888C50.213 42.4273 51.1318 41.8025 51.8213 41.2583C52.5033 41.5782 53.2467 41.746 54 41.75C54.7021 41.7498 55.3971 41.6088 56.0438 41.3352C56.6904 41.0617 57.2756 40.6612 57.7648 40.1575C58.254 39.6538 58.6371 39.0571 58.8916 38.4027C59.146 37.7483 59.2667 37.0495 59.2463 36.3477C59.2259 35.6459 59.065 34.9552 58.773 34.3167C58.481 33.6782 58.0639 33.1047 57.5463 32.6302C57.0288 32.1557 56.4213 31.7899 55.7599 31.5543C55.0984 31.3187 54.3965 31.2182 53.6955 31.2588ZM48.2548 41.6398C44.949 43.8798 43.5 44.9805 43.5 46.125C43.8713 49.093 44.4289 52.0347 45.1695 54.9328C43.5129 55.5176 41.7501 55.7408 40 55.5873C38.2499 55.7408 36.4872 55.5176 34.8305 54.9328C35.5711 52.0347 36.1287 49.093 36.5 46.125C36.5 44.928 34.9373 43.7468 31.3743 41.337C30.7758 40.9328 30.2088 40.546 29.71 40.1925C30.3545 39.549 30.8211 38.7496 31.0645 37.872C31.208 37.9298 31.3585 37.9613 31.5055 38.005C33.8453 41.1445 35.6425 42.73 36.857 42.73C36.9858 42.7308 37.114 42.7114 37.2368 42.6723C37.6918 42.5235 38.2378 42.093 38.25 40.8768C38.2745 38.5458 38.2675 37.0268 38.2588 36.2323C39.3993 36.5393 40.6007 36.5393 41.7413 36.2323C41.7413 37.018 41.7255 38.5458 41.75 40.8768C41.7623 42.093 42.3083 42.5235 42.7633 42.6723C42.886 42.7114 43.0142 42.7308 43.143 42.73C44.3575 42.73 46.1548 41.1375 48.4945 38.005C48.6398 37.9613 48.7903 37.9315 48.932 37.8738C49.1773 38.7612 49.6524 39.5683 50.3093 40.2135C49.7248 40.644 49.0055 41.1305 48.2548 41.6398ZM36.514 36.85C36.514 37.7093 36.514 39.0235 36.5 40.8313C35.5076 40.0426 34.6134 39.1379 33.8365 38.1363C34.8313 37.965 35.7586 37.5195 36.514 36.85ZM43.5 40.8365C43.4808 39.027 43.4825 37.7128 43.486 36.8535C44.2418 37.5228 45.1689 37.9687 46.1635 38.1415C45.3861 39.1426 44.4919 40.0474 43.5 40.8365ZM54 40C53.5386 40 53.0818 39.9088 52.6558 39.7316C52.2297 39.5544 51.843 39.2947 51.5177 38.9675C51.1924 38.6402 50.935 38.2519 50.7604 37.8248C50.5857 37.3978 50.4972 36.9404 50.5 36.479C50.5 36.3165 50.4548 36.1572 50.3693 36.019C50.2839 35.8808 50.1617 35.7691 50.0163 35.6964C49.871 35.6237 49.7083 35.5929 49.5464 35.6075C49.3846 35.6221 49.23 35.6815 49.1 35.779C48.6783 36.0818 48.1955 36.2887 47.6853 36.3851C47.1752 36.4815 46.6501 36.4651 46.147 36.3371C45.6439 36.209 45.1749 35.9724 44.7729 35.6438C44.371 35.3152 44.0458 34.9026 43.8203 34.435C43.7702 34.3244 43.6977 34.2254 43.6073 34.1444C43.5169 34.0634 43.4106 34.002 43.2953 33.9643C43.1801 33.9262 43.0582 33.913 42.9376 33.9254C42.817 33.9377 42.7003 33.9754 42.5953 34.036C41.8122 34.4998 40.9189 34.7446 40.0088 34.7446C39.0987 34.7446 38.2053 34.4998 37.4223 34.036C37.3167 33.9766 37.2 33.9398 37.0795 33.9278C36.959 33.9159 36.8373 33.9291 36.7222 33.9666C36.607 34.0041 36.5009 34.0651 36.4106 34.1457C36.3202 34.2263 36.2476 34.3249 36.1973 34.435C35.9723 34.9054 35.6466 35.3206 35.2434 35.6512C34.8401 35.9818 34.3691 36.2198 33.8637 36.3482C33.3583 36.4766 32.8309 36.4923 32.3187 36.3942C31.8066 36.2962 31.3222 36.0867 30.9 35.7808C30.7692 35.6843 30.6142 35.6262 30.4522 35.6129C30.2902 35.5996 30.1278 35.6317 29.983 35.7055C29.8371 35.7806 29.7149 35.8945 29.6296 36.0347C29.5444 36.1749 29.4995 36.3359 29.5 36.5C29.5 37.1922 29.2947 37.8689 28.9102 38.4445C28.5256 39.0201 27.9789 39.4687 27.3394 39.7336C26.6999 39.9985 25.9961 40.0678 25.3172 39.9328C24.6383 39.7977 24.0146 39.4644 23.5251 38.9749C23.0357 38.4854 22.7023 37.8618 22.5673 37.1828C22.4322 36.5039 22.5015 35.8002 22.7664 35.1606C23.0313 34.5211 23.4799 33.9744 24.0555 33.5899C24.6311 33.2053 25.3078 33 26 33C26.7601 33.0023 27.4981 33.2551 28.1 33.7193C28.2318 33.8147 28.3876 33.8714 28.5499 33.8832C28.7122 33.8949 28.8746 33.8612 29.0188 33.7858C29.1646 33.7085 29.2866 33.5928 29.3714 33.4512C29.4562 33.3096 29.5007 33.1476 29.5 32.9825C29.5 32.8467 29.4684 32.7127 29.4076 32.5912C29.3469 32.4697 29.2587 32.364 29.15 32.2825C28.7545 31.9884 28.4258 31.6138 28.1856 31.1833C27.9455 30.7529 27.7993 30.2764 27.7569 29.7853C27.7144 29.2943 27.7765 28.7998 27.9392 28.3345C28.1019 27.8692 28.3614 27.4437 28.7006 27.0861C29.0398 26.7284 29.4509 26.4468 29.907 26.2597C30.363 26.0727 30.8535 25.9845 31.3462 26.0009C31.8388 26.0173 32.3223 26.1381 32.7649 26.3551C33.2074 26.5721 33.5989 26.8806 33.9135 27.26C34.0061 27.3704 34.1244 27.4562 34.2581 27.5099C34.3917 27.5635 34.5366 27.5834 34.6797 27.5676C34.8229 27.5518 34.96 27.501 35.0788 27.4196C35.1976 27.3381 35.2944 27.2286 35.3608 27.1008C35.7956 26.2444 36.459 25.5251 37.2776 25.0227C38.0961 24.5203 39.0378 24.2543 39.9983 24.2543C40.9587 24.2543 41.9004 24.5203 42.719 25.0227C43.5375 25.5251 44.201 26.2444 44.6358 27.1008C44.702 27.2287 44.7988 27.3382 44.9176 27.4197C45.0363 27.5012 45.1734 27.5522 45.3165 27.568C45.4598 27.5838 45.6047 27.5639 45.7384 27.5102C45.8721 27.4564 45.9905 27.3705 46.083 27.26C46.3991 26.8855 46.7906 26.5819 47.2319 26.369C47.6733 26.1561 48.1546 26.0387 48.6444 26.0244C49.1343 26.0102 49.6216 26.0994 50.0746 26.2863C50.5276 26.4732 50.9361 26.7535 51.2733 27.109C51.6106 27.4645 51.8691 27.8871 52.032 28.3493C52.1948 28.8115 52.2583 29.3029 52.2184 29.7913C52.1784 30.2797 52.0359 30.7541 51.8001 31.1837C51.5643 31.6133 51.2406 31.9883 50.85 32.2843C50.7406 32.3734 50.6525 32.4857 50.5919 32.6132C50.5314 32.7406 50.5 32.8799 50.5 33.021C50.5 33.1835 50.5453 33.3428 50.6307 33.481C50.7161 33.6192 50.8384 33.731 50.9837 33.8036C51.129 33.8763 51.2918 33.9071 51.4536 33.8925C51.6154 33.8779 51.77 33.8185 51.9 33.721C52.5017 33.2562 53.2398 33.0028 54 33C54.9283 33 55.8185 33.3688 56.4749 34.0251C57.1313 34.6815 57.5 35.5717 57.5 36.5C57.5 37.4283 57.1313 38.3185 56.4749 38.9749C55.8185 39.6313 54.9283 40 54 40Z" fill="#1C3A27" stroke="#1C3A27" stroke-width="18" mask="url(#path-3-inside-2_22_288)"/>
</svg>
