<svg width="80" height="80" viewBox="0 0 80 80" fill="none" xmlns="http://www.w3.org/2000/svg">
<rect width="80" height="80" rx="16" fill="#E2EEEC"/>
<path d="M51.4283 25.8083L48.5717 27.525L53.3333 35.4617V46.6667H51.6667V43.3333C51.6667 42.4493 51.3155 41.6014 50.6904 40.9763C50.0652 40.3512 49.2174 40 48.3333 40H46.6667V25H26.6667V51.6667H25V55H48.3333V51.6667H46.6667V43.3333H48.3333V46.6667C48.3333 47.5507 48.6845 48.3986 49.3096 49.0237C49.9348 49.6488 50.7826 50 51.6667 50H53.3333C54.2174 50 55.0652 49.6488 55.6904 49.0237C56.3155 48.3986 56.6667 47.5507 56.6667 46.6667V34.5383L51.4283 25.8083ZM43.3333 51.6667H30V35H43.3333V51.6667ZM43.3333 31.6667H30V28.3333H43.3333V31.6667Z" fill="#1C3A27"/>
<path d="M36.6667 50C37.9719 49.9354 39.2065 49.3879 40.1305 48.4639C41.0546 47.5398 41.6021 46.3052 41.6667 45C41.6667 42.8733 39 39.97 37.845 38.8217L36.6667 37.6433L35.4884 38.8217C34.3334 39.97 31.6667 42.8733 31.6667 45C31.7313 46.3052 32.2788 47.5398 33.2028 48.4639C34.1269 49.3879 35.3615 49.9354 36.6667 50V50ZM36.6667 42.4667C37.3716 43.2028 37.9364 44.0613 38.3334 45C38.2757 45.4217 38.0816 45.813 37.7806 46.114C37.4797 46.4149 37.0884 46.6091 36.6667 46.6667C36.2493 46.61 35.8614 46.4198 35.561 46.1246C35.2606 45.8293 35.0638 45.4447 35 45.0283C35.3913 44.0781 35.9565 43.2094 36.6667 42.4667V42.4667Z" fill="#1C3A27"/>
</svg>
