<svg xmlns="http://www.w3.org/2000/svg" xmlns:xlink="http://www.w3.org/1999/xlink" width="500" zoomAndPan="magnify" viewBox="0 0 375 374.999991" height="500" preserveAspectRatio="xMidYMid meet" version="1.0"><defs><clipPath id="4ced5ee287"><path d="M 82 90 L 289.191406 90 L 289.191406 288.679688 L 82 288.679688 Z M 82 90 " clip-rule="nonzero"/></clipPath><clipPath id="7ca7a02b4e"><path d="M 289.191406 104.066406 L 300.605469 104.066406 L 300.605469 113.949219 L 289.191406 113.949219 Z M 289.191406 104.066406 " clip-rule="nonzero"/></clipPath><clipPath id="d10d3516df"><path d="M 269 86.179688 L 283 86.179688 L 283 106 L 269 106 Z M 269 86.179688 " clip-rule="nonzero"/></clipPath><clipPath id="799dda312e"><path d="M 285 255.164062 L 300.605469 255.164062 L 300.605469 266.460938 L 285 266.460938 Z M 285 255.164062 " clip-rule="nonzero"/></clipPath><clipPath id="abc8d1fb93"><path d="M 74.132812 121 L 85 121 L 85 130 L 74.132812 130 Z M 74.132812 121 " clip-rule="nonzero"/></clipPath></defs><g clip-path="url(#4ced5ee287)"><path fill="#ffffff" d="M 220.460938 91.429688 C 216.730469 91.429688 213 92.152344 209.4375 93.601562 L 101.605469 137.449219 C 86.660156 143.527344 79.445312 160.632812 85.519531 175.585938 L 123.515625 269.074219 C 126.460938 276.316406 132.046875 281.976562 139.25 285.019531 C 146.445312 288.054688 154.402344 288.109375 161.640625 285.164062 L 269.472656 241.3125 C 276.714844 238.371094 282.375 232.78125 285.410156 225.578125 C 288.449219 218.375 288.5 210.417969 285.558594 203.179688 L 247.5625 109.6875 C 244.617188 102.449219 239.03125 96.785156 231.832031 93.746094 C 228.171875 92.199219 224.316406 91.429688 220.460938 91.429688 Z M 150.617188 288.683594 C 146.585938 288.683594 142.554688 287.875 138.722656 286.257812 C 131.191406 283.078125 125.347656 277.15625 122.269531 269.582031 L 84.273438 176.09375 C 77.914062 160.453125 85.464844 142.558594 101.097656 136.203125 L 208.929688 92.351562 C 216.503906 89.269531 224.824219 89.324219 232.355469 92.503906 C 239.886719 95.683594 245.734375 101.605469 248.808594 109.179688 L 286.808594 202.671875 C 289.886719 210.246094 289.832031 218.570312 286.652344 226.101562 C 283.472656 233.636719 277.554688 239.480469 269.980469 242.5625 L 269.726562 241.9375 L 269.980469 242.5625 L 162.148438 286.414062 C 158.425781 287.925781 154.519531 288.683594 150.617188 288.683594 " fill-opacity="1" fill-rule="nonzero"/></g><path fill="#ffffff" d="M 123.664062 103.078125 C 123.324219 103.078125 123.03125 102.816406 122.992188 102.46875 C 122.957031 102.101562 123.226562 101.769531 123.597656 101.730469 L 123.960938 101.699219 C 124.332031 101.664062 124.660156 101.9375 124.695312 102.308594 C 124.726562 102.679688 124.453125 103.007812 124.082031 103.039062 L 123.730469 103.074219 C 123.710938 103.078125 123.6875 103.078125 123.664062 103.078125 Z M 118.011719 104.09375 C 117.710938 104.09375 117.441406 103.894531 117.359375 103.589844 C 117.265625 103.234375 117.480469 102.863281 117.839844 102.769531 L 118.191406 102.679688 C 118.550781 102.589844 118.921875 102.804688 119.011719 103.167969 C 119.105469 103.527344 118.886719 103.894531 118.523438 103.984375 L 118.183594 104.074219 C 118.125 104.089844 118.070312 104.09375 118.011719 104.09375 Z M 112.59375 105.992188 C 112.332031 105.992188 112.085938 105.839844 111.976562 105.585938 C 111.824219 105.246094 111.980469 104.847656 112.320312 104.699219 L 112.65625 104.554688 C 113 104.40625 113.394531 104.566406 113.539062 104.90625 C 113.6875 105.25 113.527344 105.644531 113.1875 105.792969 L 112.863281 105.933594 C 112.773438 105.972656 112.683594 105.992188 112.59375 105.992188 Z M 107.535156 108.710938 C 107.3125 108.710938 107.097656 108.605469 106.96875 108.402344 C 106.765625 108.089844 106.855469 107.671875 107.167969 107.472656 L 107.476562 107.273438 C 107.792969 107.074219 108.207031 107.171875 108.40625 107.484375 C 108.605469 107.800781 108.511719 108.21875 108.195312 108.414062 L 107.898438 108.605469 C 107.785156 108.675781 107.660156 108.710938 107.535156 108.710938 Z M 102.960938 112.191406 C 102.773438 112.191406 102.589844 112.113281 102.457031 111.964844 C 102.207031 111.6875 102.234375 111.257812 102.511719 111.011719 L 102.785156 110.769531 C 103.066406 110.523438 103.492188 110.554688 103.738281 110.835938 C 103.984375 111.117188 103.953125 111.539062 103.671875 111.785156 L 103.410156 112.019531 C 103.277344 112.132812 103.117188 112.191406 102.960938 112.191406 Z M 98.980469 116.332031 C 98.828125 116.332031 98.679688 116.28125 98.554688 116.179688 C 98.265625 115.941406 98.222656 115.519531 98.460938 115.230469 L 98.695312 114.949219 C 98.933594 114.664062 99.359375 114.625 99.644531 114.867188 C 99.929688 115.105469 99.964844 115.53125 99.726562 115.816406 L 99.5 116.085938 C 99.367188 116.25 99.175781 116.332031 98.980469 116.332031 Z M 95.6875 121.042969 C 95.570312 121.042969 95.453125 121.015625 95.347656 120.949219 C 95.023438 120.761719 94.917969 120.347656 95.109375 120.027344 L 95.296875 119.714844 C 95.488281 119.394531 95.902344 119.289062 96.21875 119.484375 C 96.539062 119.675781 96.644531 120.089844 96.449219 120.410156 L 96.269531 120.710938 C 96.144531 120.925781 95.917969 121.042969 95.6875 121.042969 " fill-opacity="1" fill-rule="nonzero"/><path fill="#ffffff" d="M 271.542969 264.4375 C 271.386719 264.4375 271.230469 264.386719 271.101562 264.273438 C 270.820312 264.03125 270.789062 263.605469 271.03125 263.324219 L 271.261719 263.054688 C 271.5 262.773438 271.925781 262.738281 272.210938 262.976562 C 272.496094 263.21875 272.53125 263.644531 272.289062 263.925781 L 272.054688 264.207031 C 271.917969 264.359375 271.730469 264.4375 271.542969 264.4375 Z M 267.46875 268.488281 C 267.277344 268.488281 267.085938 268.410156 266.953125 268.253906 C 266.710938 267.96875 266.746094 267.542969 267.03125 267.300781 L 267.296875 267.070312 C 267.578125 266.828125 268.003906 266.859375 268.25 267.140625 C 268.492188 267.421875 268.460938 267.847656 268.179688 268.089844 L 267.902344 268.328125 C 267.777344 268.4375 267.621094 268.488281 267.46875 268.488281 Z M 262.8125 271.859375 C 262.585938 271.859375 262.363281 271.742188 262.234375 271.535156 C 262.042969 271.214844 262.144531 270.800781 262.460938 270.609375 L 262.761719 270.425781 C 263.074219 270.226562 263.492188 270.320312 263.691406 270.636719 C 263.886719 270.953125 263.792969 271.367188 263.476562 271.566406 L 263.164062 271.761719 C 263.050781 271.828125 262.933594 271.859375 262.8125 271.859375 Z M 257.691406 274.460938 C 257.425781 274.460938 257.175781 274.300781 257.066406 274.039062 C 256.925781 273.695312 257.089844 273.304688 257.433594 273.160156 L 257.757812 273.027344 C 258.101562 272.878906 258.496094 273.039062 258.640625 273.382812 C 258.789062 273.726562 258.628906 274.121094 258.285156 274.265625 L 257.949219 274.410156 C 257.863281 274.441406 257.777344 274.460938 257.691406 274.460938 Z M 252.226562 276.226562 C 251.921875 276.226562 251.644531 276.015625 251.570312 275.707031 C 251.484375 275.347656 251.707031 274.980469 252.070312 274.894531 L 252.414062 274.8125 C 252.773438 274.726562 253.140625 274.945312 253.230469 275.304688 C 253.320312 275.667969 253.097656 276.03125 252.734375 276.121094 L 252.382812 276.207031 C 252.328125 276.21875 252.277344 276.226562 252.226562 276.226562 Z M 246.550781 277.109375 C 246.203125 277.109375 245.90625 276.839844 245.878906 276.488281 C 245.851562 276.117188 246.128906 275.792969 246.5 275.761719 L 246.851562 275.734375 C 247.222656 275.703125 247.546875 275.980469 247.578125 276.351562 C 247.609375 276.722656 247.335938 277.046875 246.964844 277.078125 L 246.601562 277.109375 C 246.582031 277.109375 246.566406 277.109375 246.550781 277.109375 Z M 223.90625 277.214844 L 223.546875 277.214844 C 223.175781 277.214844 222.871094 276.914062 222.871094 276.542969 C 222.871094 276.167969 223.175781 275.867188 223.546875 275.867188 L 223.90625 275.867188 C 224.277344 275.867188 224.582031 276.167969 224.582031 276.542969 C 224.582031 276.914062 224.277344 277.214844 223.90625 277.214844 Z M 229.65625 277.214844 L 229.300781 277.214844 C 228.929688 277.214844 228.625 276.914062 228.625 276.542969 C 228.625 276.167969 228.929688 275.867188 229.300781 275.867188 L 229.65625 275.867188 C 230.03125 275.867188 230.332031 276.167969 230.332031 276.542969 C 230.332031 276.914062 230.03125 277.214844 229.65625 277.214844 Z M 235.410156 277.214844 L 235.050781 277.214844 C 234.679688 277.214844 234.375 276.914062 234.375 276.542969 C 234.375 276.167969 234.679688 275.867188 235.050781 275.867188 L 235.410156 275.867188 C 235.78125 275.867188 236.085938 276.167969 236.085938 276.542969 C 236.085938 276.914062 235.78125 277.214844 235.410156 277.214844 Z M 241.160156 277.214844 L 240.800781 277.214844 C 240.429688 277.214844 240.128906 276.914062 240.128906 276.542969 C 240.128906 276.167969 240.429688 275.867188 240.800781 275.867188 L 241.160156 275.867188 C 241.535156 275.867188 241.835938 276.167969 241.835938 276.542969 C 241.835938 276.914062 241.535156 277.214844 241.160156 277.214844 " fill-opacity="1" fill-rule="nonzero"/><path fill="#008037" d="M 243.738281 269.78125 L 127.339844 269.78125 C 110.804688 269.78125 97.40625 256.378906 97.40625 239.839844 L 97.40625 138.921875 C 97.40625 122.386719 110.804688 108.980469 127.339844 108.980469 L 243.738281 108.980469 C 260.269531 108.980469 273.671875 122.386719 273.671875 138.921875 L 273.671875 239.839844 C 273.671875 256.378906 260.269531 269.78125 243.738281 269.78125 " fill-opacity="1" fill-rule="nonzero"/><path fill="#ffffff" d="M 159.726562 91.832031 C 159.554688 91.832031 159.378906 91.765625 159.246094 91.632812 C 158.988281 91.371094 158.988281 90.941406 159.25 90.679688 L 160.125 89.804688 C 160.386719 89.539062 160.8125 89.539062 161.078125 89.804688 C 161.339844 90.066406 161.339844 90.496094 161.078125 90.757812 L 160.203125 91.632812 C 160.070312 91.765625 159.898438 91.832031 159.726562 91.832031 " fill-opacity="1" fill-rule="nonzero"/><path fill="#ffffff" d="M 153.597656 97.957031 C 153.425781 97.957031 153.253906 97.894531 153.125 97.761719 C 152.859375 97.5 152.859375 97.070312 153.125 96.808594 L 153.996094 95.929688 C 154.261719 95.667969 154.6875 95.667969 154.949219 95.929688 C 155.214844 96.195312 155.214844 96.621094 154.949219 96.886719 L 154.074219 97.761719 C 153.945312 97.894531 153.773438 97.957031 153.597656 97.957031 " fill-opacity="1" fill-rule="nonzero"/><path fill="#ffffff" d="M 154.472656 91.832031 C 154.300781 91.832031 154.128906 91.765625 153.996094 91.632812 L 153.125 90.757812 C 152.859375 90.496094 152.859375 90.066406 153.125 89.804688 C 153.386719 89.539062 153.8125 89.539062 154.074219 89.804688 L 154.949219 90.679688 C 155.214844 90.941406 155.214844 91.371094 154.949219 91.632812 C 154.820312 91.765625 154.648438 91.832031 154.472656 91.832031 " fill-opacity="1" fill-rule="nonzero"/><path fill="#ffffff" d="M 160.601562 97.957031 C 160.429688 97.957031 160.257812 97.894531 160.125 97.761719 L 159.25 96.886719 C 158.988281 96.621094 158.988281 96.195312 159.25 95.929688 C 159.511719 95.667969 159.9375 95.667969 160.203125 95.929688 L 161.078125 96.808594 C 161.339844 97.070312 161.339844 97.5 161.078125 97.761719 C 160.945312 97.894531 160.773438 97.957031 160.601562 97.957031 " fill-opacity="1" fill-rule="nonzero"/><path fill="#ffffff" d="M 109.042969 279.980469 C 108.867188 279.980469 108.699219 279.914062 108.566406 279.78125 C 108.300781 279.519531 108.300781 279.089844 108.566406 278.828125 L 109.441406 277.953125 C 109.703125 277.6875 110.128906 277.6875 110.394531 277.953125 C 110.65625 278.214844 110.65625 278.644531 110.394531 278.90625 L 109.519531 279.78125 C 109.386719 279.914062 109.214844 279.980469 109.042969 279.980469 " fill-opacity="1" fill-rule="nonzero"/><path fill="#ffffff" d="M 102.914062 286.105469 C 102.742188 286.105469 102.570312 286.042969 102.4375 285.910156 C 102.175781 285.648438 102.175781 285.21875 102.4375 284.957031 L 103.3125 284.078125 C 103.578125 283.816406 104.003906 283.816406 104.269531 284.078125 C 104.53125 284.34375 104.53125 284.769531 104.269531 285.035156 L 103.390625 285.910156 C 103.261719 286.042969 103.085938 286.105469 102.914062 286.105469 " fill-opacity="1" fill-rule="nonzero"/><path fill="#ffffff" d="M 103.789062 279.980469 C 103.617188 279.980469 103.445312 279.914062 103.3125 279.78125 L 102.4375 278.90625 C 102.175781 278.644531 102.175781 278.214844 102.4375 277.953125 C 102.703125 277.6875 103.128906 277.6875 103.390625 277.953125 L 104.269531 278.828125 C 104.53125 279.089844 104.53125 279.519531 104.269531 279.78125 C 104.136719 279.914062 103.960938 279.980469 103.789062 279.980469 " fill-opacity="1" fill-rule="nonzero"/><path fill="#ffffff" d="M 109.917969 286.105469 C 109.742188 286.105469 109.570312 286.042969 109.441406 285.910156 L 108.566406 285.035156 C 108.300781 284.769531 108.300781 284.34375 108.566406 284.078125 C 108.828125 283.816406 109.253906 283.816406 109.519531 284.078125 L 110.394531 284.957031 C 110.65625 285.21875 110.65625 285.648438 110.394531 285.910156 C 110.261719 286.042969 110.089844 286.105469 109.917969 286.105469 " fill-opacity="1" fill-rule="nonzero"/><path fill="#ffffff" d="M 286.625 156.972656 C 284.511719 156.972656 282.792969 158.691406 282.792969 160.804688 C 282.792969 162.917969 284.511719 164.636719 286.625 164.636719 C 288.738281 164.636719 290.457031 162.917969 290.457031 160.804688 C 290.457031 158.691406 288.738281 156.972656 286.625 156.972656 Z M 286.625 165.988281 C 283.769531 165.988281 281.445312 163.664062 281.445312 160.804688 C 281.445312 157.949219 283.769531 155.625 286.625 155.625 C 289.480469 155.625 291.804688 157.949219 291.804688 160.804688 C 291.804688 163.664062 289.480469 165.988281 286.625 165.988281 " fill-opacity="1" fill-rule="nonzero"/><path fill="#ffffff" d="M 233.574219 98.722656 C 231.691406 98.722656 229.792969 98.902344 227.90625 99.269531 L 112.632812 121.574219 C 96.652344 124.667969 86.167969 140.1875 89.257812 156.171875 L 108.585938 256.113281 C 111.3125 270.210938 123.707031 280.03125 137.558594 280.035156 C 139.410156 280.035156 141.285156 279.859375 143.171875 279.496094 L 258.449219 257.1875 C 266.1875 255.691406 272.882812 251.265625 277.296875 244.730469 C 281.714844 238.195312 283.320312 230.332031 281.820312 222.589844 L 262.492188 122.648438 C 260.996094 114.90625 256.574219 108.210938 250.039062 103.792969 C 245.101562 100.453125 239.402344 98.722656 233.574219 98.722656 Z M 137.554688 281.382812 C 123.074219 281.382812 110.113281 271.113281 107.261719 256.367188 L 87.933594 156.429688 C 84.703125 139.714844 95.667969 123.484375 112.375 120.253906 L 227.648438 97.945312 C 235.746094 96.378906 243.964844 98.058594 250.796875 102.675781 C 257.625 107.292969 262.25 114.296875 263.816406 122.390625 L 283.144531 222.335938 C 284.710938 230.429688 283.03125 238.652344 278.414062 245.484375 C 273.796875 252.320312 266.796875 256.945312 258.703125 258.511719 L 258.574219 257.847656 L 258.703125 258.511719 L 143.429688 280.816406 C 141.457031 281.199219 139.492188 281.382812 137.554688 281.382812 " fill-opacity="1" fill-rule="nonzero"/><g clip-path="url(#7ca7a02b4e)"><path fill="#ffffff" d="M 289.640625 113.847656 L 300.605469 109.636719 L 297.632812 104.125 Z M 289.640625 113.847656 " fill-opacity="1" fill-rule="nonzero"/></g><g clip-path="url(#d10d3516df)"><path fill="#ffffff" d="M 276.65625 86.179688 L 269.167969 105.101562 L 282.480469 90.183594 Z M 276.65625 86.179688 " fill-opacity="1" fill-rule="nonzero"/></g><g clip-path="url(#799dda312e)"><path fill="#ffffff" d="M 285.355469 255.242188 L 298.914062 266.246094 L 300.5 259.898438 Z M 285.355469 255.242188 " fill-opacity="1" fill-rule="nonzero"/></g><path fill="#ffffff" d="M 88.703125 248.097656 L 77.242188 247.792969 L 77.863281 253.878906 Z M 88.703125 248.097656 " fill-opacity="1" fill-rule="nonzero"/><path fill="#ffffff" d="M 80.410156 277.597656 L 94.234375 263.332031 L 76.652344 271.808594 Z M 80.410156 277.597656 " fill-opacity="1" fill-rule="nonzero"/><g clip-path="url(#abc8d1fb93)"><path fill="#ffffff" d="M 84.320312 129.300781 L 75.300781 121.671875 L 74.140625 125.945312 Z M 84.320312 129.300781 " fill-opacity="1" fill-rule="nonzero"/></g><path fill="#ffffff" d="M 190.117188 221.597656 C 172.480469 217.644531 170.480469 203.132812 170.257812 200.261719 L 179.035156 197.90625 C 180.042969 197.636719 180.753906 196.828125 180.894531 195.796875 C 181.035156 194.765625 180.5625 193.796875 179.667969 193.269531 L 154.472656 178.449219 C 153.734375 178.015625 152.875 177.894531 152.050781 178.117188 C 151.222656 178.339844 150.535156 178.871094 150.113281 179.617188 L 135.703125 205.050781 C 135.191406 205.957031 135.265625 207.03125 135.902344 207.855469 C 136.539062 208.679688 137.558594 209.023438 138.566406 208.753906 L 147.378906 206.390625 C 151.757812 220.722656 162.929688 230.257812 174.40625 230.253906 C 176.175781 230.253906 177.957031 230.027344 179.722656 229.554688 C 183.832031 228.453125 187.542969 226.039062 190.445312 222.578125 C 190.582031 222.414062 190.625 222.195312 190.554688 221.992188 C 190.488281 221.796875 190.324219 221.644531 190.117188 221.597656 " fill-opacity="1" fill-rule="nonzero"/><path fill="#ffffff" d="M 223.125 222.097656 C 234.921875 209.445312 236.652344 192.148438 227.007812 182.5 C 224.207031 179.699219 220.726562 177.816406 216.660156 176.910156 C 216.4375 176.855469 216.210938 176.9375 216.066406 177.109375 C 215.921875 177.28125 215.882812 177.519531 215.96875 177.726562 C 221.738281 191.734375 208.839844 203.253906 206.34375 205.3125 L 199.949219 198.917969 C 199.214844 198.179688 198.160156 197.96875 197.195312 198.363281 C 196.230469 198.757812 195.628906 199.648438 195.617188 200.691406 L 195.386719 229.925781 C 195.378906 230.78125 195.707031 231.585938 196.3125 232.191406 C 196.914062 232.789062 197.703125 233.117188 198.550781 233.117188 C 198.558594 233.117188 198.570312 233.117188 198.578125 233.117188 L 227.804688 232.882812 C 228.84375 232.875 229.734375 232.269531 230.128906 231.308594 C 230.523438 230.34375 230.3125 229.289062 229.578125 228.550781 L 223.125 222.097656 " fill-opacity="1" fill-rule="nonzero"/><path fill="#ffffff" d="M 221.09375 167.496094 C 221.316406 166.667969 221.199219 165.804688 220.765625 165.070312 L 205.949219 139.871094 C 205.421875 138.96875 204.453125 138.5 203.421875 138.640625 C 202.390625 138.78125 201.582031 139.492188 201.3125 140.5 L 198.953125 149.3125 C 182.097656 145.421875 166.257812 152.566406 162.726562 165.746094 C 161.621094 169.863281 161.859375 174.289062 163.410156 178.542969 C 163.488281 178.753906 163.679688 178.90625 163.902344 178.933594 C 164.121094 178.960938 164.347656 178.863281 164.476562 178.675781 C 172.242188 167.367188 189.484375 171.390625 192.792969 172.292969 L 190.46875 180.980469 C 190.199219 181.984375 190.542969 183.003906 191.367188 183.644531 C 191.828125 184 192.367188 184.179688 192.914062 184.179688 C 193.34375 184.179688 193.773438 184.070312 194.171875 183.84375 L 219.597656 169.429688 C 220.34375 169.007812 220.875 168.320312 221.09375 167.496094 " fill-opacity="1" fill-rule="nonzero"/></svg>