<svg width="303" height="271" viewBox="0 0 303 271" fill="none" xmlns="http://www.w3.org/2000/svg">
<mask id="mask0_68_349" style="mask-type:luminance" maskUnits="userSpaceOnUse" x="11" y="6" width="277" height="265">
<path d="M11.3333 6H287.589V270.906H11.3333V6Z" fill="white"/>
</mask>
<g mask="url(#mask0_68_349)">
<path d="M195.948 7.90621C190.974 7.90621 186 8.86975 181.25 10.802L37.4739 69.2656C17.5468 77.3698 7.92704 100.177 16.026 120.115L66.6875 244.766C70.6146 254.422 78.0625 261.969 87.6666 266.026C97.2604 270.073 107.87 270.146 117.521 266.219L261.297 207.75C270.953 203.828 278.5 196.375 282.547 186.771C286.599 177.167 286.667 166.557 282.745 156.906L232.083 32.25C228.156 22.5989 220.708 15.0468 211.109 10.9948C206.229 8.93225 201.089 7.90621 195.948 7.90621ZM102.823 270.911C97.4479 270.911 92.0729 269.833 86.9635 267.677C76.9218 263.437 69.1302 255.542 65.026 245.443L14.3645 120.792C5.88538 99.9375 15.9531 76.0781 36.7968 67.6041L180.573 9.13538C190.672 5.026 201.766 5.09892 211.807 9.3385C221.849 13.5781 229.646 21.4739 233.745 31.5729L284.411 156.229C288.516 166.328 288.443 177.427 284.203 187.469C279.964 197.516 272.073 205.307 261.974 209.417L118.198 267.885C113.234 269.901 108.026 270.911 102.823 270.911Z" fill="white"/>
</g>
<path d="M66.8854 23.4376C66.4323 23.4376 66.0417 23.0886 65.9896 22.6251C65.9427 22.1355 66.3021 21.6928 66.7969 21.6407L67.2813 21.599C67.776 21.5522 68.2135 21.9167 68.2604 22.4115C68.3021 22.9063 67.9375 23.3438 67.4427 23.3855L66.974 23.4324C66.9479 23.4376 66.9167 23.4376 66.8854 23.4376ZM59.349 24.7917C58.9479 24.7917 58.5885 24.5261 58.4792 24.1199C58.3542 23.6459 58.6406 23.1511 59.1198 23.0261L59.5885 22.9063C60.0677 22.7865 60.5625 23.073 60.6823 23.5574C60.8073 24.0365 60.5156 24.5261 60.0313 24.6459L59.5781 24.7657C59.5 24.7865 59.4271 24.7917 59.349 24.7917ZM52.125 27.323C51.776 27.323 51.4479 27.1199 51.3021 26.7813C51.099 26.3282 51.3073 25.7969 51.7604 25.599L52.2083 25.4063C52.6667 25.2084 53.1927 25.4219 53.3854 25.8751C53.5833 26.3334 53.3698 26.8594 52.9167 27.0574L52.4844 27.2449C52.3646 27.2969 52.2448 27.323 52.125 27.323ZM45.3802 30.948C45.0833 30.948 44.7969 30.8074 44.625 30.5365C44.3542 30.1199 44.474 29.5626 44.8906 29.2969L45.3021 29.0313C45.724 28.7657 46.276 28.8959 46.5417 29.3126C46.8073 29.7344 46.6823 30.2917 46.2604 30.5522L45.8646 30.8074C45.7135 30.9011 45.5469 30.948 45.3802 30.948ZM39.2813 35.5886C39.0313 35.5886 38.7865 35.4844 38.6094 35.2865C38.276 34.9167 38.3125 34.3438 38.6823 34.0157L39.0469 33.6928C39.4219 33.3647 39.9896 33.4063 40.3177 33.7813C40.6458 34.1563 40.6042 34.7188 40.2292 35.0469L39.8802 35.3594C39.7031 35.5105 39.4896 35.5886 39.2813 35.5886ZM33.974 41.1094C33.7708 41.1094 33.5729 41.0417 33.4063 40.9063C33.0208 40.5886 32.9635 40.0261 33.2813 39.6407L33.5938 39.2657C33.9115 38.8855 34.4792 38.8334 34.8594 39.1563C35.2396 39.474 35.2865 40.0417 34.9688 40.4219L34.6667 40.7813C34.4896 41.0001 34.2344 41.1094 33.974 41.1094ZM29.5833 47.3907C29.4271 47.3907 29.2708 47.3542 29.1302 47.2657C28.6979 47.0157 28.5573 46.4636 28.8125 46.0365L29.0625 45.6199C29.3177 45.1928 29.8698 45.0522 30.2917 45.3126C30.7188 45.5678 30.8594 46.1199 30.599 46.5469L30.3594 46.948C30.1927 47.2344 29.8906 47.3907 29.5833 47.3907Z" fill="white"/>
<path d="M264.057 238.583C263.849 238.583 263.641 238.516 263.469 238.365C263.094 238.042 263.052 237.474 263.375 237.099L263.682 236.74C264 236.365 264.568 236.318 264.948 236.635C265.328 236.958 265.375 237.526 265.052 237.901L264.74 238.276C264.557 238.479 264.307 238.583 264.057 238.583ZM258.625 243.984C258.37 243.984 258.115 243.88 257.938 243.672C257.615 243.292 257.662 242.724 258.042 242.401L258.396 242.094C258.771 241.771 259.339 241.813 259.667 242.188C259.99 242.563 259.948 243.13 259.573 243.453L259.203 243.771C259.037 243.917 258.828 243.984 258.625 243.984ZM252.417 248.479C252.115 248.479 251.818 248.323 251.646 248.047C251.391 247.62 251.526 247.068 251.948 246.813L252.349 246.568C252.766 246.302 253.323 246.427 253.589 246.849C253.849 247.271 253.724 247.823 253.302 248.089L252.885 248.349C252.734 248.438 252.578 248.479 252.417 248.479ZM245.589 251.948C245.234 251.948 244.901 251.734 244.755 251.385C244.568 250.927 244.787 250.406 245.245 250.214L245.677 250.036C246.135 249.839 246.662 250.052 246.854 250.51C247.052 250.969 246.839 251.495 246.38 251.688L245.932 251.88C245.818 251.922 245.703 251.948 245.589 251.948ZM238.302 254.302C237.896 254.302 237.526 254.021 237.427 253.609C237.313 253.13 237.609 252.641 238.094 252.526L238.552 252.417C239.031 252.302 239.521 252.594 239.641 253.073C239.76 253.557 239.464 254.042 238.979 254.161L238.51 254.276C238.438 254.292 238.37 254.302 238.302 254.302ZM230.734 255.479C230.271 255.479 229.875 255.12 229.839 254.651C229.802 254.156 230.172 253.724 230.667 253.682L231.135 253.646C231.63 253.604 232.063 253.974 232.104 254.469C232.146 254.964 231.781 255.396 231.287 255.438L230.802 255.479C230.776 255.479 230.755 255.479 230.734 255.479ZM200.542 255.62H200.063C199.568 255.62 199.161 255.219 199.161 254.724C199.161 254.224 199.568 253.823 200.063 253.823H200.542C201.036 253.823 201.443 254.224 201.443 254.724C201.443 255.219 201.036 255.62 200.542 255.62ZM208.208 255.62H207.734C207.24 255.62 206.833 255.219 206.833 254.724C206.833 254.224 207.24 253.823 207.734 253.823H208.208C208.708 253.823 209.109 254.224 209.109 254.724C209.109 255.219 208.708 255.62 208.208 255.62ZM215.88 255.62H215.401C214.906 255.62 214.5 255.219 214.5 254.724C214.5 254.224 214.906 253.823 215.401 253.823H215.88C216.375 253.823 216.781 254.224 216.781 254.724C216.781 255.219 216.375 255.62 215.88 255.62ZM223.547 255.62H223.068C222.573 255.62 222.172 255.219 222.172 254.724C222.172 254.224 222.573 253.823 223.068 253.823H223.547C224.047 253.823 224.448 254.224 224.448 254.724C224.448 255.219 224.047 255.62 223.547 255.62Z" fill="white"/>
<path d="M226.984 245.708H71.7865C49.7396 245.708 31.875 227.839 31.875 205.786V71.2291C31.875 49.1823 49.7396 31.3073 71.7865 31.3073H226.984C249.026 31.3073 266.896 49.1823 266.896 71.2291V205.786C266.896 227.839 249.026 245.708 226.984 245.708Z" fill="#008037"/>
<path d="M114.969 8.44275C114.74 8.44275 114.505 8.35421 114.328 8.17713C113.984 7.82817 113.984 7.25525 114.333 6.90629L115.5 5.73963C115.849 5.38546 116.417 5.38546 116.771 5.73963C117.12 6.08858 117.12 6.6615 116.771 7.01046L115.604 8.17713C115.427 8.35421 115.198 8.44275 114.969 8.44275Z" fill="white"/>
<path d="M106.797 16.6094C106.568 16.6094 106.339 16.526 106.167 16.349C105.813 16 105.813 15.4271 106.167 15.0781L107.328 13.9063C107.682 13.5573 108.25 13.5573 108.599 13.9063C108.953 14.2604 108.953 14.8281 108.599 15.1823L107.432 16.349C107.26 16.526 107.031 16.6094 106.797 16.6094Z" fill="white"/>
<path d="M107.964 8.44275C107.734 8.44275 107.505 8.35421 107.328 8.17713L106.167 7.01046C105.813 6.6615 105.813 6.08858 106.167 5.73963C106.516 5.38546 107.083 5.38546 107.432 5.73963L108.599 6.90629C108.953 7.25525 108.953 7.82817 108.599 8.17713C108.427 8.35421 108.198 8.44275 107.964 8.44275Z" fill="white"/>
<path d="M116.135 16.6094C115.906 16.6094 115.677 16.526 115.5 16.349L114.333 15.1823C113.984 14.8281 113.984 14.2604 114.333 13.9063C114.682 13.5573 115.25 13.5573 115.604 13.9063L116.771 15.0781C117.12 15.4271 117.12 16 116.771 16.349C116.594 16.526 116.365 16.6094 116.135 16.6094Z" fill="white"/>
<path d="M47.3906 259.307C47.1562 259.307 46.9323 259.219 46.7552 259.042C46.401 258.693 46.401 258.12 46.7552 257.771L47.9219 256.604C48.2708 256.25 48.8385 256.25 49.1927 256.604C49.5416 256.953 49.5416 257.526 49.1927 257.875L48.026 259.042C47.8489 259.219 47.6198 259.307 47.3906 259.307Z" fill="white"/>
<path d="M39.2187 267.474C38.9896 267.474 38.7604 267.391 38.5833 267.214C38.2344 266.865 38.2344 266.292 38.5833 265.943L39.75 264.771C40.1041 264.422 40.6719 264.422 41.026 264.771C41.375 265.125 41.375 265.693 41.026 266.047L39.8541 267.214C39.6823 267.391 39.4479 267.474 39.2187 267.474Z" fill="white"/>
<path d="M40.3854 259.307C40.1562 259.307 39.9271 259.219 39.75 259.042L38.5833 257.875C38.2344 257.526 38.2344 256.953 38.5833 256.604C38.9375 256.25 39.5052 256.25 39.8541 256.604L41.026 257.771C41.375 258.12 41.375 258.693 41.026 259.042C40.8489 259.219 40.6146 259.307 40.3854 259.307Z" fill="white"/>
<path d="M48.5573 267.474C48.3229 267.474 48.0937 267.391 47.9219 267.214L46.7552 266.047C46.401 265.693 46.401 265.125 46.7552 264.771C47.1041 264.422 47.6719 264.422 48.026 264.771L49.1927 265.943C49.5416 266.292 49.5416 266.865 49.1927 267.214C49.0156 267.391 48.7864 267.474 48.5573 267.474Z" fill="white"/>
<path d="M284.167 95.2969C281.349 95.2969 279.057 97.5885 279.057 100.406C279.057 103.224 281.349 105.516 284.167 105.516C286.984 105.516 289.276 103.224 289.276 100.406C289.276 97.5885 286.984 95.2969 284.167 95.2969ZM284.167 107.318C280.359 107.318 277.26 104.219 277.26 100.406C277.26 96.599 280.359 93.5 284.167 93.5C287.974 93.5 291.073 96.599 291.073 100.406C291.073 104.219 287.974 107.318 284.167 107.318Z" fill="white"/>
<path d="M213.432 17.6302C210.922 17.6302 208.391 17.8698 205.875 18.3594L52.1771 48.099C30.8698 52.224 16.8906 72.9167 21.0104 94.2292L46.7813 227.484C50.4167 246.281 66.9427 259.375 85.4115 259.38C87.8802 259.38 90.3802 259.146 92.8958 258.661L246.599 228.917C256.917 226.922 265.844 221.021 271.729 212.307C277.62 203.594 279.76 193.109 277.76 182.786L251.99 49.5313C249.995 39.2084 244.099 30.2813 235.385 24.3907C228.802 19.9375 221.203 17.6302 213.432 17.6302ZM85.4063 261.177C66.099 261.177 48.8177 247.484 45.0156 227.823L19.2448 94.573C14.9375 72.2865 29.5573 50.6459 51.8333 46.3386L205.531 16.5938C216.328 14.5052 227.286 16.7448 236.396 22.9011C245.5 29.0573 251.667 38.3959 253.755 49.1875L279.526 182.448C281.615 193.24 279.375 204.203 273.219 213.313C267.063 222.427 257.729 228.594 246.938 230.682L93.2396 260.422C90.6094 260.932 87.9896 261.177 85.4063 261.177Z" fill="white"/>
<mask id="mask1_68_349" style="mask-type:luminance" maskUnits="userSpaceOnUse" x="287" y="24" width="16" height="14">
<path d="M287.589 24.7552H302.807V37.9323H287.589V24.7552Z" fill="white"/>
</mask>
<g mask="url(#mask1_68_349)">
<path d="M288.188 37.7969L302.807 32.1823L298.844 24.8334L288.188 37.7969Z" fill="white"/>
</g>
<mask id="mask2_68_349" style="mask-type:luminance" maskUnits="userSpaceOnUse" x="260" y="0" width="20" height="28">
<path d="M260.667 0.90625H279.333V27.3333H260.667V0.90625Z" fill="white"/>
</mask>
<g mask="url(#mask2_68_349)">
<path d="M270.875 0.90625L260.891 26.1354L278.641 6.24479L270.875 0.90625Z" fill="white"/>
</g>
<mask id="mask3_68_349" style="mask-type:luminance" maskUnits="userSpaceOnUse" x="282" y="226" width="21" height="16">
<path d="M282 226.219H302.807V241.281H282V226.219Z" fill="white"/>
</mask>
<g mask="url(#mask3_68_349)">
<path d="M282.474 226.323L300.552 240.995L302.667 232.531L282.474 226.323Z" fill="white"/>
</g>
<path d="M20.2708 216.797L4.98956 216.391L5.81769 224.505L20.2708 216.797Z" fill="white"/>
<path d="M9.21354 256.13L27.6458 237.109L4.20312 248.411L9.21354 256.13Z" fill="white"/>
<mask id="mask4_68_349" style="mask-type:luminance" maskUnits="userSpaceOnUse" x="0" y="47" width="16" height="13">
<path d="M0.84375 47.3334H15.3333V59.3334H0.84375V47.3334Z" fill="white"/>
</mask>
<g mask="url(#mask4_68_349)">
<path d="M14.4271 58.4011L2.40106 48.2292L0.854187 53.9272L14.4271 58.4011Z" fill="white"/>
</g>
<path d="M155.49 181.464C131.974 176.193 129.307 156.844 129.01 153.016L140.714 149.875C142.057 149.516 143.005 148.437 143.193 147.062C143.38 145.687 142.75 144.396 141.557 143.693L107.964 123.932C106.979 123.354 105.833 123.193 104.734 123.49C103.63 123.786 102.714 124.495 102.151 125.49L82.9375 159.401C82.2552 160.609 82.3542 162.042 83.2031 163.141C84.0521 164.24 85.4115 164.698 86.7552 164.338L98.5052 161.187C104.344 180.297 119.24 193.01 134.542 193.005C136.901 193.005 139.276 192.703 141.63 192.073C147.109 190.604 152.057 187.385 155.927 182.771C156.109 182.552 156.167 182.26 156.073 181.99C155.984 181.729 155.766 181.526 155.49 181.464Z" fill="white"/>
<path d="M199.5 182.13C215.229 165.26 217.536 142.198 204.677 129.333C200.943 125.599 196.302 123.089 190.88 121.88C190.583 121.807 190.281 121.917 190.089 122.146C189.896 122.375 189.844 122.693 189.958 122.969C197.651 141.646 180.453 157.005 177.125 159.75L168.599 151.224C167.62 150.24 166.214 149.958 164.927 150.484C163.641 151.01 162.839 152.198 162.823 153.589L162.516 192.568C162.505 193.708 162.943 194.781 163.75 195.589C164.552 196.385 165.604 196.823 166.734 196.823C166.745 196.823 166.76 196.823 166.771 196.823L205.74 196.51C207.125 196.5 208.313 195.693 208.839 194.411C209.365 193.125 209.083 191.719 208.104 190.734L199.5 182.13Z" fill="white"/>
<path d="M196.792 109.328C197.089 108.224 196.932 107.073 196.354 106.094L176.599 72.4947C175.896 71.2916 174.604 70.6666 173.229 70.8541C171.854 71.0416 170.776 71.9895 170.417 73.3333L167.271 85.0833C144.797 79.8958 123.677 89.4218 118.969 106.995C117.495 112.484 117.813 118.385 119.88 124.057C119.984 124.338 120.24 124.542 120.536 124.578C120.828 124.615 121.13 124.484 121.302 124.234C131.656 109.156 154.646 114.521 159.057 115.724L155.958 127.307C155.599 128.646 156.057 130.005 157.156 130.859C157.771 131.333 158.49 131.573 159.219 131.573C159.792 131.573 160.365 131.427 160.896 131.125L194.797 111.906C195.792 111.344 196.5 110.427 196.792 109.328Z" fill="white"/>
</svg>
