<svg width="80" height="80" viewBox="0 0 80 80" fill="none" xmlns="http://www.w3.org/2000/svg">
<rect width="80" height="80" rx="16" fill="#E2EEEC"/>
<path d="M49.3333 37L48.3333 36.25L47.3333 37C46.5817 37.5633 40 42.6667 40 48.3333C40 50.5435 40.878 52.6631 42.4408 54.2259C44.0036 55.7887 46.1232 56.6667 48.3333 56.6667C50.5435 56.6667 52.6631 55.7887 54.2259 54.2259C55.7887 52.6631 56.6667 50.5435 56.6667 48.3333C56.6667 42.6667 50.085 37.5633 49.3333 37ZM48.3333 53.3333C47.0073 53.3333 45.7355 52.8065 44.7978 51.8689C43.8601 50.9312 43.3333 49.6594 43.3333 48.3333C43.3333 45.4867 46.365 42.2167 48.3333 40.4867C50.3017 42.2167 53.3333 45.4867 53.3333 48.3333C53.3333 49.6594 52.8066 50.9312 51.8689 51.8689C50.9312 52.8065 49.6594 53.3333 48.3333 53.3333Z" fill="#1C3A27"/>
<path d="M32.5917 31.9466L31.6667 31.3333L30.7417 31.95C30.5083 32.1033 25 35.8416 25 41.6666C25 43.4348 25.7024 45.1304 26.9526 46.3807C28.2029 47.6309 29.8986 48.3333 31.6667 48.3333C33.4348 48.3333 35.1305 47.6309 36.3807 46.3807C37.631 45.1304 38.3333 43.4348 38.3333 41.6666C38.3333 35.8416 32.8333 32.1033 32.5917 31.9466ZM31.6667 45C30.7826 45 29.9348 44.6488 29.3096 44.0237C28.6845 43.3985 28.3333 42.5507 28.3333 41.6666C28.4382 40.4599 28.7879 39.2873 29.361 38.2201C29.9341 37.153 30.7186 36.2139 31.6667 35.46C32.6146 36.214 33.399 37.1532 33.9721 38.2203C34.5451 39.2874 34.8949 40.46 35 41.6666C35 42.5507 34.6488 43.3985 34.0237 44.0237C33.3986 44.6488 32.5507 45 31.6667 45Z" fill="#1C3A27"/>
<path d="M48.3333 30C48.3333 27.8733 45.6667 24.97 44.5117 23.8216L43.3333 22.6433L42.155 23.8216C41 24.97 38.3333 27.8733 38.3333 30C38.3333 31.3261 38.8601 32.5978 39.7978 33.5355C40.7355 34.4732 42.0073 35 43.3333 35C44.6594 35 45.9312 34.4732 46.8689 33.5355C47.8066 32.5978 48.3333 31.3261 48.3333 30ZM41.6667 30.0283C42.0565 29.0774 42.622 28.2084 43.3333 27.4666C44.0407 28.2078 44.6056 29.0727 45 30.0183C45.0013 30.4603 44.827 30.8848 44.5154 31.1983C44.2038 31.5118 43.7804 31.6887 43.3383 31.69C42.8963 31.6913 42.4719 31.517 42.1584 31.2054C41.8449 30.8937 41.668 30.4703 41.6667 30.0283Z" fill="black"/>
</svg>
